<?xml version="1.0" encoding="UTF-8"?>
<svg width="101px" height="21px" viewBox="0 0 101 21" version="1.1" xmlns="http://www.w3.org/2000/svg" xmlns:xlink="http://www.w3.org/1999/xlink">
    <!-- Generator: Sketch 61.2 (89653) - https://sketch.com -->
    <title>visa_mc_maestro</title>
    <desc>Created with Sketch.</desc>
    <g id="Logos-for-export" stroke="none" stroke-width="1" fill="none" fill-rule="evenodd">
        <g id="visa_mc_maestro" transform="translate(1.000000, 1.000000)" fill-rule="nonzero">
            <g id="Group-29">
                <g id="Group">
                    <path d="M0,1.9795638 C0,0.886280904 0.927768424,0 2.07608984,0 L28.9239102,0 C30.0705029,0 31,0.890925393 31,1.9795638 L31,17.0204362 C31,18.1137191 30.0722316,19 28.9239102,19 L2.07608984,19 C0.929497084,19 0,18.1090746 0,17.0204362 L0,1.9795638 Z" id="Rectangle-2" stroke="#000000" stroke-width="0.7" fill="#FFFFFF"></path>
                    <g id="visa" transform="translate(4.383562, 6.333333)" fill="#1A1F71">
                        <g id="d11c4685-0de7-43a5-9036-eaab5538fd4b">
                            <path d="M8.31210897,0.124338913 L5.41235672,6.79220039 L3.52597534,6.79220039 L2.14088092,1.46959607 C2.07764164,1.10257157 2.01594478,0.981228772 1.76298767,0.858387918 C1.32185515,0.675624697 0.630850356,0.429942989 0,0.308600194 L0.0632392778,0.125836972 L3.08484282,0.125836972 C3.46273606,0.125836972 3.83908689,0.370020621 3.90386859,0.796967492 L4.65811265,4.6514738 L6.4843396,0.125836972 L8.31210897,0.124338913 L8.31210897,0.124338913 Z M15.6787136,4.58705725 C15.6787136,2.81335517 13.1599395,2.7534328 13.2231787,1.95796337 C13.2231787,1.71377972 13.4745934,1.46959607 13.9774228,1.40817564 C14.2288375,1.34675522 14.9213847,1.34675522 15.7404105,1.71377972 L15.9918252,0.305604076 C15.5506926,0.184261281 15.0478633,0 14.3537736,0 C12.590786,0 11.3938669,0.916812227 11.3306277,2.20064896 C11.3306277,3.17888161 12.2113503,3.66724891 12.9054399,4.03427341 C13.5964447,4.33987749 13.8494018,4.58406114 13.8494018,4.88966521 C13.8494018,5.31811014 13.2833332,5.56079573 12.777419,5.56079573 C11.8966963,5.56079573 11.3907821,5.31661208 10.951192,5.1323508 L10.5732988,6.47910602 C11.0144313,6.66186924 11.7702178,6.84613052 12.5260043,6.84613052 C14.4185553,6.8506247 15.6787136,5.9952329 15.6787136,4.58705725 L15.6787136,4.58705725 Z M20.273587,6.79070233 L21.9116385,6.79070233 L20.4617624,0.124338913 L18.9517319,0.124338913 C18.6370779,0.124338913 18.3224239,0.307102135 18.1974878,0.612706211 L15.5537775,6.78770621 L17.4417013,6.78770621 L17.8195945,5.80947356 L20.0854116,5.80947356 L20.273587,6.79070233 Z M18.3208815,4.40429403 L19.2648434,1.89654294 L19.8324545,4.40429403 L18.3208815,4.40429403 Z M10.8308831,0.124338913 L9.38100701,6.79070233 L7.61956176,6.79070233 L9.06943788,0.124338913 L10.8308831,0.124338913 L10.8308831,0.124338913 Z" id="Shape"></path>
                        </g>
                    </g>
                </g>
            </g>
            <g id="Group-29" transform="translate(34.000000, 0.000000)">
                <g id="Group">
                    <path d="M0,1.9795638 C0,0.886280904 0.927768424,0 2.07608984,0 L28.9239102,0 C30.0705029,0 31,0.890925393 31,1.9795638 L31,17.0204362 C31,18.1137191 30.0722316,19 28.9239102,19 L2.07608984,19 C0.929497084,19 0,18.1090746 0,17.0204362 L0,1.9795638 Z" id="Rectangle-2" stroke="#000000" stroke-width="0.7" fill="#FFFFFF"></path>
                    <g id="_Group_" transform="translate(6.000000, 4.000000)">
                        <polygon id="Rectangle-path" fill="#FF5F00" points="7.02853023 1.2642509 12.2195901 1.2642509 12.2195901 10.381352 7.02853023 10.381352"></polygon>
                        <path d="M7.35812133,5.8236067 C7.35618047,4.0442327 8.19179628,2.3628679 9.62406015,1.2642509 C7.19164327,-0.603933174 3.69859509,-0.331816008 1.59973598,1.88936577 C-0.499123128,4.11054754 -0.499123128,7.53505534 1.59973598,9.75623711 C3.69859509,11.9774189 7.19164327,12.2495361 9.62406015,10.381352 C8.19225193,9.28308374 7.35668717,7.60241553 7.35812133,5.8236067 L7.35812133,5.8236067 Z" id="_Path_" fill="#EB001B"></path>
                        <path d="M19.223401,5.8236067 C19.223401,8.04343486 17.9263646,10.0683734 15.8832844,11.0384233 C13.8402043,12.0084731 11.4097171,11.7533291 9.62406015,10.381352 C11.0552436,9.28215134 11.8908713,7.60170658 11.8908713,5.82280144 C11.8908713,4.0438963 11.0552436,2.36345154 9.62406015,1.2642509 C11.4097171,-0.107726227 13.8402043,-0.362870193 15.8832844,0.607179625 C17.9263646,1.57722944 19.223401,3.60216803 19.223401,5.82199619 L19.223401,5.8236067 Z" id="Shape" fill="#F79E1B"></path>
                        <path d="M18.6620047,9.42958183 L18.6620047,9.23071825 L18.7430491,9.23071825 L18.7430491,9.18957406 L18.5378515,9.18957406 L18.5378515,9.23071825 L18.6257933,9.23071825 L18.6257933,9.42958183 L18.6620047,9.42958183 Z M19.0603295,9.42958183 L19.0603295,9.18957406 L18.9982529,9.18957406 L18.9258302,9.36100818 L18.8534075,9.18957406 L18.7982283,9.18957406 L18.7982283,9.42958183 L18.8430614,9.42958183 L18.8430614,9.249576 L18.9103111,9.40558105 L18.9568685,9.40558105 L19.0241182,9.249576 L19.0241182,9.43129617 L19.0603295,9.42958183 Z" id="Shape" fill="#F79E1B"></path>
                    </g>
                </g>
            </g>
            <g id="Group-29" transform="translate(68.000000, 0.000000)">
                <g id="Group">
                    <path d="M0,1.9795638 C0,0.886280904 0.927768424,0 2.07608984,0 L28.9239102,0 C30.0705029,0 31,0.890925393 31,1.9795638 L31,17.0204362 C31,18.1137191 30.0722316,19 28.9239102,19 L2.07608984,19 C0.929497084,19 0,18.1090746 0,17.0204362 L0,1.9795638 Z" id="Rectangle-2" stroke="#000000" stroke-width="0.7" fill="#FFFFFF"></path>
                    <g id="_Group_" transform="translate(6.000000, 4.000000)">
                        <polygon id="Rectangle-path" fill="#7673C0" points="7.02853023 1.2642509 12.2195901 1.2642509 12.2195901 10.381352 7.02853023 10.381352"></polygon>
                        <path d="M7.35812133,5.8236067 C7.35618047,4.0442327 8.19179628,2.3628679 9.62406015,1.2642509 C7.19164327,-0.603933174 3.69859509,-0.331816008 1.59973598,1.88936577 C-0.499123128,4.11054754 -0.499123128,7.53505534 1.59973598,9.75623711 C3.69859509,11.9774189 7.19164327,12.2495361 9.62406015,10.381352 C8.19225193,9.28308374 7.35668717,7.60241553 7.35812133,5.8236067 L7.35812133,5.8236067 Z" id="_Path_" fill="#EB001B"></path>
                        <path d="M19.223401,5.8236067 C19.223401,8.04343486 17.9263646,10.0683734 15.8832844,11.0384233 C13.8402043,12.0084731 11.4097171,11.7533291 9.62406015,10.381352 C11.0552436,9.28215134 11.8908713,7.60170658 11.8908713,5.82280144 C11.8908713,4.0438963 11.0552436,2.36345154 9.62406015,1.2642509 C11.4097171,-0.107726227 13.8402043,-0.362870193 15.8832844,0.607179625 C17.9263646,1.57722944 19.223401,3.60216803 19.223401,5.82199619 L19.223401,5.8236067 Z" id="Shape" fill="#00A1DF"></path>
                        <path d="M18.6620047,9.42958183 L18.6620047,9.23071825 L18.7430491,9.23071825 L18.7430491,9.18957406 L18.5378515,9.18957406 L18.5378515,9.23071825 L18.6257933,9.23071825 L18.6257933,9.42958183 L18.6620047,9.42958183 Z M19.0603295,9.42958183 L19.0603295,9.18957406 L18.9982529,9.18957406 L18.9258302,9.36100818 L18.8534075,9.18957406 L18.7982283,9.18957406 L18.7982283,9.42958183 L18.8430614,9.42958183 L18.8430614,9.249576 L18.9103111,9.40558105 L18.9568685,9.40558105 L19.0241182,9.249576 L19.0241182,9.43129617 L19.0603295,9.42958183 Z" id="Shape" fill="#00A1DF"></path>
                    </g>
                </g>
            </g>
        </g>
    </g>
</svg>